<?xml version="1.0" encoding="UTF-8"?>
<svg width="196px" height="65px" viewBox="0 0 196 65" version="1.1" xmlns="http://www.w3.org/2000/svg" xmlns:xlink="http://www.w3.org/1999/xlink">
    <!-- Generator: Sketch 48.2 (47327) - http://www.bohemiancoding.com/sketch -->
    <title>logo</title>
    <desc>Created with Sketch.</desc>
    <defs></defs>
    <g id="Desktop" stroke="none" stroke-width="1" fill="none" fill-rule="evenodd" transform="translate(-29.000000, -22.000000)">
        <g id="logo" transform="translate(29.000000, 23.000000)" fill="#FFFFFF">
            <path d="M4.704,30 L4.704,5.472 L0.168,5.472 L0.168,0.012 L15.372,0.012 L15.372,5.472 L10.836,5.472 L10.836,30 L4.704,30 Z M18.858,14.292 L18.858,24.036 C18.858,25.338 19.194,25.884 20.244,25.884 C21.294,25.884 21.63,25.338 21.63,24.036 L21.63,14.292 C21.63,12.99 21.294,12.444 20.244,12.444 C19.194,12.444 18.858,12.99 18.858,14.292 Z M12.894,24.078 L12.894,14.25 C12.894,9.588 16.002,7.74 20.244,7.74 C24.486,7.74 27.594,9.588 27.594,14.25 L27.594,24.078 C27.594,28.74 24.486,30.588 20.244,30.588 C16.002,30.588 12.894,28.74 12.894,24.078 Z M30.324,30 L30.324,8.328 L36.036,8.328 L36.036,10.848 L36.12,10.848 C36.792,9.21 38.472,7.74 40.614,7.74 C43.218,7.74 45.108,9.294 45.108,12.948 L45.108,30 L39.144,30 L39.144,14.544 C39.144,13.032 38.682,12.444 37.8,12.444 C36.75,12.444 36.288,13.032 36.288,14.964 L36.288,30 L30.324,30 Z M49.308,37.56 L49.308,32.268 L51.534,32.268 C52.416,32.268 52.836,31.848 52.836,31.344 C52.836,31.092 52.71,30.714 52.584,30.336 L46.746,8.328 L53.004,8.328 L55.566,24.162 L55.65,24.162 L57.372,8.328 L63.672,8.328 L58.044,33.234 C57.372,36.174 56.154,37.56 53.13,37.56 L49.308,37.56 Z M88.998,9.042 L83.034,9.042 L83.034,7.362 C83.034,5.64 82.488,4.884 81.27,4.884 C80.01,4.884 79.506,5.598 79.506,7.362 C79.506,12.612 89.166,12.612 89.166,22.398 C89.166,28.656 87.234,30.588 81.228,30.588 C75.642,30.588 73.374,28.908 73.374,23.364 L73.374,20.55 L79.506,20.55 L79.506,22.65 C79.506,24.372 80.052,25.128 81.27,25.128 C82.53,25.128 83.034,24.414 83.034,22.65 C82.992,16.434 73.374,17.064 73.374,7.068 C73.374,1.692 75.39,-0.576 81.27,-0.576 C86.478,-0.576 88.998,1.356 88.998,6.69 L88.998,9.042 Z M91.98,8.328 L91.98,2.574 L97.944,2.574 L97.944,8.328 L101.178,8.328 L101.178,13.2 L97.944,13.2 L97.944,22.02 C97.944,24.372 98.196,24.708 99.54,24.708 L101.178,24.708 L101.178,30 L95.298,30 C93.072,30 91.98,28.572 91.98,26.304 L91.98,13.2 L90.09,13.2 L90.09,8.328 L91.98,8.328 Z M108.276,15.258 L103.068,15.258 L103.068,13.2 C103.068,9.756 105.588,7.74 110.082,7.74 C114.576,7.74 117.096,9.756 117.096,13.2 L117.096,25.884 C117.096,27.816 117.474,28.95 117.768,30 L112.014,30 C111.72,29.286 111.636,28.446 111.636,27.648 L111.552,27.648 C110.712,29.79 109.158,30.588 107.268,30.588 C103.908,30.588 102.312,28.866 102.312,24.372 L102.312,23.112 C102.312,14.25 111.384,18.198 111.384,13.704 C111.384,12.906 111.006,12.024 110.04,12.024 C108.528,12.024 108.276,12.906 108.276,15.258 Z M111.132,24.498 L111.132,19.626 C109.326,20.886 108.276,21.096 108.276,23.532 L108.276,24.078 C108.276,25.38 108.906,25.884 109.998,25.884 C110.46,25.884 111.132,25.464 111.132,24.498 Z M129.99,13.2 L126.84,13.2 L126.84,30 L120.876,30 L120.876,13.2 L118.818,13.2 L118.818,8.328 L120.876,8.328 L120.876,5.598 C120.876,1.524 122.766,0.012 126.462,0.012 L129.99,0.012 L129.99,4.884 L128.604,4.884 C127.386,4.884 126.84,5.262 126.84,6.48 L126.84,8.328 L129.99,8.328 L129.99,13.2 Z M142.926,8.37 L148.89,8.37 L148.89,30 L142.926,30 L142.926,8.37 Z M148.638,5.724 L143.178,5.724 L143.178,0.012 L148.638,0.012 L148.638,5.724 Z M141.54,13.2 L138.516,13.2 L138.516,30 L132.552,30 L132.552,13.2 L130.494,13.2 L130.494,8.328 L132.552,8.328 L132.552,5.598 C132.552,1.524 134.442,0.012 138.138,0.012 L141.54,0.012 L141.54,4.884 L140.154,4.884 C139.062,4.884 138.516,5.262 138.516,6.48 L138.516,8.328 L141.54,8.328 L141.54,13.2 Z M166.32,20.592 L157.668,20.592 L157.668,23.952 C157.668,25.38 158.34,25.884 159.264,25.884 C160.23,25.884 160.86,25.38 160.86,23.952 L160.86,22.776 L166.32,22.776 L166.32,24.708 C166.32,28.572 164.094,30.588 159.012,30.588 C153.93,30.588 151.704,28.572 151.704,24.708 L151.704,15.006 C151.704,10.05 153.552,7.74 159.012,7.74 C164.472,7.74 166.32,10.05 166.32,15.006 L166.32,20.592 Z M157.668,16.476 L160.86,16.476 L160.86,14.502 C160.86,13.116 160.23,12.444 159.264,12.444 C158.298,12.444 157.668,13.116 157.668,14.502 L157.668,16.476 Z M169.092,30 L169.092,8.328 L174.846,8.328 L174.846,12.612 L174.93,12.612 C176.568,9 177.576,8.328 179.886,7.992 L179.886,15.258 L179.802,15.258 C179.424,15.174 179.046,15.132 178.668,15.132 C176.652,15.132 175.056,16.518 175.056,19.122 L175.056,30 L169.092,30 Z M187.152,14.292 L187.152,24.036 C187.152,25.338 187.488,25.884 188.538,25.884 C189.588,25.884 189.924,25.338 189.924,24.036 L189.924,14.292 C189.924,12.99 189.588,12.444 188.538,12.444 C187.488,12.444 187.152,12.99 187.152,14.292 Z M181.188,24.078 L181.188,14.25 C181.188,9.588 184.296,7.74 188.538,7.74 C192.78,7.74 195.888,9.588 195.888,14.25 L195.888,24.078 C195.888,28.74 192.78,30.588 188.538,30.588 C184.296,30.588 181.188,28.74 181.188,24.078 Z" id="Tony-Staffiero"></path>
            <path d="M9.553,57 L5.116,41.63 L5.957,41.63 L10.017,56.043 L13.178,43.834 L14.106,43.834 L17.209,56.043 L21.356,41.63 L22.139,41.63 L17.673,57 L16.745,57 L13.642,44.907 L10.481,57 L9.553,57 Z M34.522,49.402 L24.082,49.402 C24.082,53.665 25.938,56.623 29.157,56.623 C31.564,56.623 33.101,54.941 33.565,52.853 L34.319,52.853 C34.058,54.071 33.478,55.202 32.608,56.043 C31.738,56.855 30.607,57.377 29.157,57.377 C24.778,57.377 23.27,52.998 23.27,49.344 C23.27,44.356 25.706,41.253 29.041,41.253 C30.694,41.253 32.057,42.007 32.956,43.225 C34.261,44.965 34.522,47.285 34.522,49.402 Z M24.082,48.648 L33.71,48.648 C33.594,44.037 31.535,42.007 28.896,42.007 C26.054,42.007 24.169,45.023 24.082,48.648 Z M37.625,57 L37.625,35.54 L38.437,35.54 L38.437,41.63 C38.437,43.544 38.437,44.588 38.379,45.487 C39.075,42.877 40.844,41.253 43.106,41.253 C46.383,41.253 48.471,44.907 48.471,49.286 C48.471,53.752 46.383,57.377 43.106,57.377 C41.105,57.377 39.365,56.275 38.379,53.143 C38.437,54.332 38.437,55.434 38.437,57 L37.625,57 Z M47.659,49.315 L47.659,49.286 C47.659,45.748 46.122,42.007 43.048,42.007 C39.974,42.007 38.437,45.748 38.437,49.315 C38.437,52.882 39.974,56.623 43.048,56.623 C46.122,56.623 47.659,52.882 47.659,49.315 Z M68.017,35.54 L68.017,57 L67.205,57 C67.205,55.086 67.205,54.042 67.263,53.143 C66.567,55.753 64.798,57.377 62.536,57.377 C59.259,57.377 57.171,53.723 57.171,49.344 C57.171,44.878 59.259,41.253 62.536,41.253 C64.537,41.253 66.277,42.355 67.263,45.487 C67.205,44.298 67.205,43.196 67.205,41.63 L67.205,35.54 L68.017,35.54 Z M57.983,49.286 L57.983,49.315 C57.983,52.853 59.52,56.594 62.594,56.594 C64.131,56.594 65.291,55.666 66.045,54.274 C66.828,52.882 67.205,51.055 67.205,49.286 C67.205,47.488 66.828,45.661 66.045,44.298 C65.291,42.906 64.131,41.978 62.594,41.978 C59.52,41.978 57.983,45.719 57.983,49.286 Z M82.459,49.402 L72.019,49.402 C72.019,53.665 73.875,56.623 77.094,56.623 C79.501,56.623 81.038,54.941 81.502,52.853 L82.256,52.853 C81.995,54.071 81.415,55.202 80.545,56.043 C79.675,56.855 78.544,57.377 77.094,57.377 C72.715,57.377 71.207,52.998 71.207,49.344 C71.207,44.356 73.643,41.253 76.978,41.253 C78.631,41.253 79.994,42.007 80.893,43.225 C82.198,44.965 82.459,47.285 82.459,49.402 Z M72.019,48.648 L81.647,48.648 C81.531,44.037 79.472,42.007 76.833,42.007 C73.991,42.007 72.106,45.023 72.019,48.648 Z M93.885,41.63 L89.1,57 L88.114,57 L83.329,41.63 L84.17,41.63 L88.607,56.333 L93.102,41.63 L93.885,41.63 Z M106.094,49.402 L95.654,49.402 C95.654,53.665 97.51,56.623 100.729,56.623 C103.136,56.623 104.673,54.941 105.137,52.853 L105.891,52.853 C105.63,54.071 105.05,55.202 104.18,56.043 C103.31,56.855 102.179,57.377 100.729,57.377 C96.35,57.377 94.842,52.998 94.842,49.344 C94.842,44.356 97.278,41.253 100.613,41.253 C102.266,41.253 103.629,42.007 104.528,43.225 C105.833,44.965 106.094,47.285 106.094,49.402 Z M95.654,48.648 L105.282,48.648 C105.166,44.037 103.107,42.007 100.468,42.007 C97.626,42.007 95.741,45.023 95.654,48.648 Z M109.342,57 L109.342,35.54 L110.154,35.54 L110.154,57 L109.342,57 Z M113.489,49.315 L113.489,49.286 C113.489,44.936 115.258,41.253 119.434,41.253 C123.581,41.253 125.35,44.936 125.35,49.315 C125.35,53.694 123.581,57.377 119.434,57.377 C115.258,57.377 113.489,53.694 113.489,49.315 Z M114.301,49.315 L114.301,49.344 C114.301,53.694 115.983,56.623 119.434,56.623 C122.856,56.623 124.538,53.694 124.538,49.315 C124.538,44.936 122.856,42.007 119.434,42.007 C115.983,42.007 114.301,44.936 114.301,49.315 Z M128.54,63.177 L128.54,41.63 L129.352,41.63 C129.352,43.196 129.352,44.298 129.294,45.487 C130.28,42.355 132.02,41.253 134.021,41.253 C137.298,41.253 139.386,44.878 139.386,49.344 C139.386,53.723 137.298,57.377 134.021,57.377 C131.759,57.377 129.99,55.753 129.294,53.143 C129.352,54.042 129.352,55.086 129.352,57 L129.352,63.177 L128.54,63.177 Z M138.574,49.315 L138.574,49.286 C138.574,45.748 137.037,42.007 133.963,42.007 C132.426,42.007 131.266,42.935 130.512,44.327 C129.729,45.69 129.352,47.517 129.352,49.315 C129.352,51.084 129.729,52.911 130.512,54.303 C131.266,55.695 132.426,56.623 133.963,56.623 C137.037,56.623 138.574,52.882 138.574,49.315 Z M152.958,49.402 L142.518,49.402 C142.518,53.665 144.374,56.623 147.593,56.623 C150,56.623 151.537,54.941 152.001,52.853 L152.755,52.853 C152.494,54.071 151.914,55.202 151.044,56.043 C150.174,56.855 149.043,57.377 147.593,57.377 C143.214,57.377 141.706,52.998 141.706,49.344 C141.706,44.356 144.142,41.253 147.477,41.253 C149.13,41.253 150.493,42.007 151.392,43.225 C152.697,44.965 152.958,47.285 152.958,49.402 Z M142.518,48.648 L152.146,48.648 C152.03,44.037 149.971,42.007 147.332,42.007 C144.49,42.007 142.605,45.023 142.518,48.648 Z M156.061,57 L156.061,41.63 L156.873,41.63 C156.873,43.544 156.873,44.53 156.786,45.632 C157.656,41.949 160.034,41.311 160.991,41.253 L160.991,42.007 L160.846,42.007 C159.599,42.007 156.873,43.892 156.873,49.228 L156.873,57 L156.061,57 Z" id="web-developer"></path>
        </g>
    </g>
</svg>